<?xml version="1.0" encoding="UTF-8"?>
<svg version="1.1" xmlns="http://www.w3.org/2000/svg" width="1752" height="447">
<path d="M0 0 C35.81286921 30.7148698 44.67346437 81.12591983 48.5546875 125.77734375 C49.32126434 137.48743773 49.20841197 149.24279379 49.21484375 160.97265625 C49.21585083 162.24332947 49.21685791 163.51400269 49.21789551 164.82318115 C49.20747717 184.26043614 48.70650572 203.33287244 45.96484375 222.59765625 C45.82030762 223.64308594 45.67577148 224.68851563 45.52685547 225.765625 C42.72044058 245.38255832 37.56510635 264.23563789 30.48046875 282.7265625 C30.22523438 283.40726807 29.97 284.08797363 29.70703125 284.78930664 C28.96484375 286.59765625 28.96484375 286.59765625 27.48046875 289.12890625 C26.74019858 292.67323009 28.10789411 294.33758864 29.9909668 297.32202148 C30.47734619 298.05235596 30.96372559 298.78269043 31.46484375 299.53515625 C31.9544458 300.30351807 32.44404785 301.07187988 32.94848633 301.86352539 C34.60308226 304.45329409 36.28316346 307.0254025 37.96484375 309.59765625 C39.89914586 312.58617533 41.82783035 315.5781253 43.75 318.57446289 C45.00614379 320.52944952 46.27033079 322.47929425 47.54296875 324.42358398 C48.11917969 325.31505127 48.69539063 326.20651855 49.2890625 327.125 C49.80557373 327.91640381 50.32208496 328.70780762 50.85424805 329.52319336 C51.96484375 331.59765625 51.96484375 331.59765625 51.96484375 334.59765625 C50.50927734 336.14501953 50.50927734 336.14501953 48.48828125 337.79296875 C45.52008127 340.28061546 42.62903061 342.80186972 39.81640625 345.46484375 C39.12538818 346.11904297 38.43437012 346.77324219 37.72241211 347.44726562 C37.01866455 348.11564453 36.31491699 348.78402344 35.58984375 349.47265625 C29.45885483 355.27171478 23.28648606 361.0060316 16.96484375 366.59765625 C14.64808295 364.43195165 12.96784615 362.22374313 11.29296875 359.53515625 C10.79635742 358.74294678 10.29974609 357.9507373 9.78808594 357.13452148 C9.26891602 356.29735596 8.74974609 355.46019043 8.21484375 354.59765625 C7.1422038 352.88003549 6.06928826 351.16258681 4.99609375 349.4453125 C4.47789062 348.61402832 3.9596875 347.78274414 3.42578125 346.92626953 C2.17312375 344.92963731 0.90556581 342.94499225 -0.37890625 340.96875 C-1.3225 339.51662109 -1.3225 339.51662109 -2.28515625 338.03515625 C-3.09726563 336.79572266 -3.09726563 336.79572266 -3.92578125 335.53125 C-5.03515625 333.59765625 -5.03515625 333.59765625 -5.03515625 331.59765625 C-5.54264404 331.85458252 -6.05013184 332.11150879 -6.57299805 332.3762207 C-8.9492138 333.56875731 -11.33566321 334.73934978 -13.72265625 335.91015625 C-14.91858398 336.51633789 -14.91858398 336.51633789 -16.13867188 337.13476562 C-27.37034332 342.59522249 -38.51203895 344.14466212 -50.91015625 344.03515625 C-52.13959961 344.02613281 -53.36904297 344.01710938 -54.63574219 344.0078125 C-73.27144867 343.65256472 -91.09758233 337.28302626 -105.03515625 324.59765625 C-106.11796875 323.63472656 -106.11796875 323.63472656 -107.22265625 322.65234375 C-137.023994 294.61011275 -145.79978317 249.58051256 -150.03515625 210.59765625 C-150.19177734 209.20522705 -150.19177734 209.20522705 -150.3515625 207.78466797 C-156.93041462 146.42021663 -156.64707842 65.68919154 -117.22265625 14.34765625 C-115.85210694 12.74238688 -114.45425348 11.16017288 -113.03515625 9.59765625 C-112.16375 8.62183594 -111.29234375 7.64601563 -110.39453125 6.640625 C-82.04497192 -24.01055299 -32.41868877 -25.65957992 0 0 Z M-70.41015625 71.3671875 C-97.38767367 108.39642415 -88.56928187 183.37276594 -82.296875 225.78125 C-80.29790095 237.95011967 -76.8885124 251.65609981 -67.53515625 260.41015625 C-62.5309803 263.92783095 -57.69974599 266.02447213 -51.53515625 265.28515625 C-50.38015625 265.05828125 -49.22515625 264.83140625 -48.03515625 264.59765625 C-49.48406869 260.63520363 -51.37115984 257.21725218 -53.58984375 253.6328125 C-54.10407394 252.79912392 -54.10407394 252.79912392 -54.62869263 251.94859314 C-55.35138601 250.77848343 -56.07593761 249.60951958 -56.80224609 248.44165039 C-57.90331102 246.67116322 -58.99903651 244.89746674 -60.09375 243.12304688 C-64.04693603 236.68327768 -64.04693603 236.68327768 -68.33642578 230.46655273 C-70.03515625 227.59765625 -70.03515625 227.59765625 -69.95898438 225.40332031 C-68.93424899 223.40042842 -67.92480548 222.21167705 -66.25390625 220.70703125 C-65.66697998 220.16973389 -65.08005371 219.63243652 -64.4753418 219.07885742 C-63.83508057 218.50756104 -63.19481934 217.93626465 -62.53515625 217.34765625 C-61.17642341 216.11009915 -59.81837876 214.87178616 -58.4609375 213.6328125 C-57.38513428 212.65658936 -57.38513428 212.65658936 -56.28759766 211.66064453 C-51.62947061 207.39431313 -47.0705033 203.02075973 -42.49609375 198.66503906 C-41.81160156 198.01760742 -41.12710937 197.37017578 -40.421875 196.703125 C-39.81561279 196.12715576 -39.20935059 195.55118652 -38.5847168 194.95776367 C-37.03515625 193.59765625 -37.03515625 193.59765625 -35.03515625 192.59765625 C-34.7626001 193.32686279 -34.49004395 194.05606934 -34.20922852 194.80737305 C-33.08233593 197.4855297 -31.79863923 199.78865611 -30.25 202.2421875 C-29.71955078 203.08330078 -29.18910156 203.92441406 -28.64257812 204.79101562 C-28.09150391 205.65533203 -27.54042969 206.51964844 -26.97265625 207.41015625 C-26.41771484 208.29380859 -25.86277344 209.17746094 -25.29101562 210.08789062 C-23.22015616 213.38104179 -23.22015616 213.38104179 -21.03515625 216.59765625 C-20.70515625 216.59765625 -20.37515625 216.59765625 -20.03515625 216.59765625 C-18.02484076 200.08467751 -17.72450531 183.72512544 -17.78125 167.10247803 C-17.78515486 165.09836778 -17.78125546 163.0944327 -17.77441406 161.09033203 C-17.71257219 141.66009171 -17.76744456 122.11603602 -21.91015625 103.03515625 C-22.08232666 102.21490967 -22.25449707 101.39466309 -22.43188477 100.54956055 C-25.28578168 87.39100629 -29.47764705 72.71315869 -40.80859375 64.27734375 C-52.26436111 57.59091627 -62.67371209 61.88658963 -70.41015625 71.3671875 Z " fill="#581A87" transform="translate(1218.03515625,43.40234375)"/>
<path d="M0 0 C5.06862272 4.31333423 9.32189721 8.99111226 13.0625 14.5 C16.79077381 11.39310516 20.29926814 8.28403904 23.625 4.75 C39.25182341 -10.9366963 59.88708446 -20.63985102 82 -20.9375 C101.0127251 -20.82441434 115.41611616 -13.30509511 128.68701172 0.07373047 C143.11559242 15.03499572 151.78395435 33.02958059 155.0625 53.5 C155.26875 54.75683594 155.475 56.01367188 155.6875 57.30859375 C163.00492182 107.76831507 142.82611437 160.97096555 115.0625 202.5 C114.6190625 203.16725098 114.175625 203.83450195 113.71875 204.52197266 C103.02304229 220.54654326 91.27555496 235.73229196 78.30078125 249.984375 C75.25732349 253.40494533 72.39161449 256.95721979 69.51171875 260.515625 C66.74439402 263.88761239 63.91106535 267.1966857 61.0625 270.5 C57.52635091 274.60226498 54.03386492 278.72802093 50.625 282.9375 C46.48679571 288.03702942 42.19038244 292.98622336 37.875 297.93530273 C33.82588428 302.58999944 29.89162938 307.31941871 26.0078125 312.11328125 C23.41616152 315.29299761 20.74897628 318.40021967 18.0625 321.5 C17.4025 321.17 16.7425 320.84 16.0625 320.5 C16.47387207 319.78271729 16.88524414 319.06543457 17.30908203 318.32641602 C26.46829035 302.34795238 35.56355422 286.33732351 44.52978516 270.24951172 C45.9174573 267.76018969 47.30789904 265.27244067 48.69921875 262.78515625 C72.14525887 220.81166268 94.9651482 179.92412884 105.0625 132.5 C105.24474121 131.64712402 105.42698242 130.79424805 105.61474609 129.91552734 C111.85168085 99.36385589 110.32916055 64.86312368 93.02392578 38.13476562 C86.98031355 28.92449244 86.98031355 28.92449244 79.0625 21.5 C67.64448308 21.72912409 58.57874639 30.73537191 51.0625 38.5 C39.1181396 52.19546262 30.3419352 68.4155958 22.0625 84.5 C18.50376875 83.31375625 17.98940958 82.34618739 15.8125 79.375 C-0.33117158 58.74533558 -21.74041983 42.20257277 -46.9375 34.5 C-47.6903125 34.25378906 -48.443125 34.00757813 -49.21875 33.75390625 C-60.59804123 30.58083466 -73.89660911 31.73292766 -84.9375 35.5 C-85.89785156 35.81710938 -86.85820313 36.13421875 -87.84765625 36.4609375 C-93.99025537 38.743168 -99.28039515 41.82673725 -104.625 45.5625 C-105.23778809 45.9860376 -105.85057617 46.4095752 -106.48193359 46.84594727 C-108.77613463 48.51816346 -110.64441844 49.91152003 -111.92578125 52.484375 C-111.97534507 61.00935177 -106.35475364 68.45015836 -100.9375 74.5 C-100.40253906 75.11617188 -99.86757812 75.73234375 -99.31640625 76.3671875 C-82.99429106 93.98098087 -53.60659027 102.4565013 -30.17745972 103.63934326 C-23.30503069 103.80163362 -16.43472668 103.68565619 -9.5625 103.5625 C-6.51476736 103.5145175 -3.46723527 103.47132402 -0.41928101 103.44029236 C1.45730023 103.42065744 3.33381236 103.39116933 5.21005249 103.35035706 C6.05258575 103.34052292 6.89511902 103.33068878 7.76318359 103.32055664 C8.49942963 103.3070668 9.23567566 103.29357697 9.99423218 103.27967834 C12.38167875 103.53400043 13.99093183 104.31687535 16.0625 105.5 C16.35652058 110.49834992 16.26469742 113.55062318 13.0625 117.5 C8.60311705 120.84120932 4.29839204 122.74831402 -0.9375 124.4375 C-1.6991748 124.68838379 -2.46084961 124.93926758 -3.24560547 125.19775391 C-12.97307914 128.29454442 -22.95504645 130.40568068 -32.9375 132.5 C-17.67642448 141.81870983 -2.18051903 150.63932822 13.91064453 158.45068359 C16.19566576 159.56493606 18.4705082 160.69864583 20.74609375 161.83203125 C28.52481457 165.66048956 36.32784066 169.27802306 44.41796875 172.40625 C45.04633636 172.64937424 45.67470398 172.89249847 46.32211304 173.14299011 C49.42242186 174.33645467 52.52863824 175.50753536 55.64550781 176.6574707 C61.6211962 178.91211979 66.61997891 180.82325108 71.0625 185.5 C71.6875 188.125 71.6875 188.125 71.0625 190.5 C67.36186639 194.33769412 63.35248341 194.41541092 58.25 194.75 C40.91328276 194.46391556 24.20269088 187.63367274 8.27539062 181.41674805 C4.88170673 180.10575476 1.63362768 179.16275805 -1.9375 178.5 C5.00269865 182.24921866 11.94668124 185.99124254 18.8966217 189.72236633 C22.41001958 191.60923052 25.91765949 193.50630706 29.421875 195.41015625 C37.5961225 199.81850602 45.73454055 203.86151163 54.45922852 207.08178711 C59.14294442 208.8686349 62.48244144 210.94735383 66.0625 214.5 C66.5625 218.1875 66.5625 218.1875 66.0625 221.5 C63.72900299 223.83349701 63.24515916 223.84356735 60.0625 223.9375 C38.83110091 223.33604394 16.40977012 211.59958052 -2.37963867 202.61694336 C-4.77779605 201.36660636 -4.77779605 201.36660636 -6.9375 201.5 C14.21621011 214.21938881 14.21621011 214.21938881 35.625 226.5 C36.29966309 226.87753418 36.97432617 227.25506836 37.66943359 227.64404297 C40.70147719 229.31186206 43.72901526 230.79757345 46.9375 232.08203125 C50.0625 233.5 50.0625 233.5 51.5 236.1875 C51.685625 236.950625 51.87125 237.71375 52.0625 238.5 C48.98288954 241.79199738 47.1118249 243.42943941 42.453125 243.58984375 C36.21874336 243.28742972 30.95396267 242.31231152 25.16796875 239.93359375 C24.5288707 239.67113861 23.88977264 239.40868347 23.23130798 239.13827515 C15.41550993 235.8841108 7.77045787 232.25661435 0.125 228.625 C-1.34811711 227.92928467 -2.82142367 227.23397032 -4.29492188 226.5390625 C-7.84463689 224.86396419 -11.39178563 223.18354892 -14.9375 221.5 C-9.084917 226.06526151 -3.00608928 230.11066572 3.3125 234 C4.23329346 234.57024902 5.15408691 235.14049805 6.1027832 235.72802734 C11.92627716 239.2976125 17.74556621 242.55076222 23.98046875 245.3515625 C26.0625 246.5 26.0625 246.5 28.0625 249.5 C28.3125 253.0625 28.3125 253.0625 28.0625 256.5 C25.74331751 258.81918249 25.17409861 258.89372289 22 259.0625 C13.7222655 258.82767065 6.42062357 254.96103315 -0.9375 251.5 C-1.8872168 251.05462891 -2.83693359 250.60925781 -3.81542969 250.15039062 C-47.88028076 229.25307565 -95.38670063 200.58092125 -126.9375 162.5 C-128.18080078 161.08847656 -128.18080078 161.08847656 -129.44921875 159.6484375 C-152.15283875 133.77322469 -167.9158994 101.8383315 -166.09716797 66.76171875 C-164.39409371 42.63743747 -155.65735494 22.82042444 -138.9375 5.5 C-138.2671875 4.76652344 -137.596875 4.03304688 -136.90625 3.27734375 C-100.60802939 -35.40487016 -38.71716024 -32.14847006 0 0 Z " fill="#581A87" transform="translate(165.9375,24.5)"/>
<path d="M0 0 C1.23041016 0.00418945 2.46082031 0.00837891 3.72851562 0.01269531 C18.1214179 0.19043215 29.57715554 2.71321851 43.375 7.3125 C43.375 38.9925 43.375 70.6725 43.375 103.3125 C40.24453432 102.68640686 37.39442671 102.07729443 34.37890625 101.15625 C33.29319336 100.82947266 33.29319336 100.82947266 32.18554688 100.49609375 C30.69042419 100.04145175 29.19563014 99.58572755 27.70117188 99.12890625 C15.16920403 95.36374613 -0.9759893 93.51569945 -13.24609375 98.98828125 C-17.6592532 101.44486754 -21.69364668 104.13971318 -25.625 107.3125 C-26.29015625 107.83972656 -26.9553125 108.36695312 -27.640625 108.91015625 C-38.74595312 118.8191787 -46.07340004 134.39530966 -50.625 148.3125 C-50.84881348 148.9921582 -51.07262695 149.67181641 -51.30322266 150.37207031 C-57.18280372 168.70228242 -59.14809016 187.35458419 -59.01611328 206.54199219 C-59.00000088 209.31234922 -59.01610118 212.08124833 -59.03515625 214.8515625 C-59.0738006 247.14363481 -52.74155552 282.94171277 -29.7734375 307.1640625 C-29.06445312 307.87304688 -28.35546875 308.58203125 -27.625 309.3125 C-27.03976562 309.89773438 -26.45453125 310.48296875 -25.8515625 311.0859375 C-15.77228682 320.40808449 -1.8759645 323.84414548 11.625 323.375 C20.05667206 322.4534479 28.15218113 319.60064202 36.17773438 316.9609375 C38.53829824 316.26430888 40.96158533 315.79518293 43.375 315.3125 C43.375 346.6625 43.375 378.0125 43.375 410.3125 C16.60601034 421.46624569 -10.85773398 422.94832136 -38.4375 413.0625 C-63.63639249 402.44734555 -83.58685956 385.09537303 -98.625 362.3125 C-99.01349121 361.7256543 -99.40198242 361.13880859 -99.80224609 360.53417969 C-110.72725816 343.76296065 -118.6421876 325.36126986 -124.625 306.3125 C-124.85525879 305.59094727 -125.08551758 304.86939453 -125.32275391 304.12597656 C-147.50616092 233.5231742 -144.54821724 143.99412796 -110.83520508 77.62426758 C-106.59681056 69.50928279 -102.03235339 61.71362614 -96.625 54.3125 C-96.05241455 53.51996826 -96.05241455 53.51996826 -95.46826172 52.71142578 C-75.80556875 25.74297794 -49.93830229 6.48942482 -16.65258789 0.70507812 C-11.10927083 -0.01370696 -5.58262261 -0.02600126 0 0 Z " fill="#581A87" transform="translate(644.625,0.6875)"/>
<path d="M0 0 C28.09307473 -1.41250096 53.35082227 11.29583369 73.87109375 29.5546875 C94.64565473 49.41575714 108.7459207 76.61678288 113 105 C113.19529297 106.21042969 113.19529297 106.21042969 113.39453125 107.4453125 C114.82885175 118.42264536 114.56498151 130.18776237 113.5 141.1875 C112.17395115 155.6924343 112.74743543 166.71185024 119 180 C119.38091797 180.8156543 119.76183594 181.63130859 120.15429688 182.47167969 C126.15326739 195.1567066 132.93816721 207.36875035 139.90234375 219.54296875 C142.74717291 224.52734833 145.5005476 229.5539211 148.1875 234.625 C148.5498877 235.3053833 148.91227539 235.9857666 149.28564453 236.68676758 C154.81972695 247.20635274 154.81972695 247.20635274 153 254 C148.12912757 260.2408053 140.18486552 264.8456688 133 268 C132.34 268 131.68 268 131 268 C131.37253906 269.14597656 131.74507812 270.29195313 132.12890625 271.47265625 C132.60752759 273.0023676 133.08534993 274.53232909 133.5625 276.0625 C133.80935547 276.81466797 134.05621094 277.56683594 134.31054688 278.34179688 C135.81611535 283.24019572 136.34709095 286.91098975 135 292 C133.58984375 294.21484375 133.58984375 294.21484375 131.9375 295.9375 C131.38964844 296.52402344 130.84179688 297.11054688 130.27734375 297.71484375 C129.85582031 298.13894531 129.43429687 298.56304687 129 299 C129.433125 299.42410156 129.86625 299.84820312 130.3125 300.28515625 C130.869375 300.87167969 131.42625 301.45820313 132 302.0625 C132.556875 302.63097656 133.11375 303.19945312 133.6875 303.78515625 C135.62595197 307.05629395 135.47516762 309.25906172 135 313 C133.1015625 316.0625 133.1015625 316.0625 130.625 319 C124.8797089 325.85787128 123.68231745 331.85767844 123.91015625 340.53125 C123.9305718 342.16275751 123.95074679 343.79426805 123.97070312 345.42578125 C124.01417453 347.96677088 124.0626598 350.50754765 124.11645508 353.04833984 C124.16498715 355.5218021 124.19467919 357.99498204 124.22265625 360.46875 C124.2552932 361.59561218 124.2552932 361.59561218 124.28858948 362.74523926 C124.34919363 369.25413396 122.99437367 373.91065615 118.375 378.75 C110.72904763 384.4334294 101.80436957 384.54305072 92.625 384.5 C91.64623901 384.50084595 91.64623901 384.50084595 90.64770508 384.50170898 C78.14235372 384.47930599 65.89060574 383.08073053 53.5 381.5 C18.91288215 376.89167099 18.91288215 376.89167099 -15 383 C-16.5242955 383.50394938 -18.04906402 384.00646951 -19.57421875 384.5078125 C-41.76018233 392.03090978 -60.19445963 403.82435245 -77 420 C-77.64324219 420.58007812 -78.28648437 421.16015625 -78.94921875 421.7578125 C-85.66236308 427.98585782 -91.08939288 436.08343392 -95.734375 443.9296875 C-96.15203125 444.61289062 -96.5696875 445.29609375 -97 446 C-97.33 446 -97.66 446 -98 446 C-98.32902482 431.36936291 -98.5414318 417.26153749 -95 403 C-94.8443457 402.33307129 -94.68869141 401.66614258 -94.52832031 400.97900391 C-89.0144838 377.83960018 -77.02196075 358.84541408 -61.65625 341.08984375 C-59.18645769 338.23481366 -56.80603634 335.31482064 -54.4375 332.375 C-50.61330649 327.67144649 -46.5731507 323.209102 -42.46875 318.75 C-40.05621896 316.06262366 -37.7674379 313.31034556 -35.5 310.5 C-32.44651321 306.71539666 -29.29331699 303.07792463 -26 299.5 C-21.99202602 295.13494078 -18.17994009 290.66364938 -14.4609375 286.05078125 C-12.66719764 283.82711326 -10.86127617 281.61801522 -9.0390625 279.41796875 C-0.62707638 269.22741888 7.26349348 258.70983173 15 248 C15.51949219 247.28730957 16.03898437 246.57461914 16.57421875 245.84033203 C39.50399507 214.35609867 58.6600692 180.01874507 68 142 C68.17934082 141.2879541 68.35868164 140.5759082 68.54345703 139.84228516 C73.66727875 118.56850302 72.73172365 93.26481318 68 72 C67.83371094 71.2359082 67.66742188 70.47181641 67.49609375 69.68457031 C64.02008478 54.30644913 57.70672504 40.4767497 48 28 C47.33291016 27.08734375 47.33291016 27.08734375 46.65234375 26.15625 C36.91782794 13.66882447 21.98542871 6.69896143 7.03125 2.859375 C4.45384206 2.12866656 2.32730237 1.30055133 0 0 Z " fill="#581A87" transform="translate(263,1)"/>
<path d="M0 0 C6.56636127 5.91551048 9.81110924 14.52344859 12.9609375 22.59765625 C13.59 21.75203125 14.2190625 20.90640625 14.8671875 20.03515625 C23.61854893 8.37757197 32.47863856 -3.16955579 47.9609375 -5.40234375 C56.67169799 -6.08864609 64.47710597 -5.28449668 71.6484375 0.03515625 C80.67566243 8.49687057 83.97703481 22.68457142 84.9609375 34.59765625 C85.10126978 39.33710874 85.08762701 44.07537565 85.07446289 48.81640625 C85.07418043 50.24613951 85.0743399 51.67587291 85.0749054 53.10560608 C85.07519107 56.96659232 85.06933157 60.82754718 85.06233144 64.68852615 C85.05605956 68.73106983 85.05549107 72.77361431 85.05430603 76.81616211 C85.05120399 84.46220993 85.04300585 92.10824336 85.03295654 99.75428486 C85.02176033 108.46288795 85.01627612 117.17149175 85.01126111 125.88010025 C85.00082225 143.78596205 84.98249084 161.69180414 84.9609375 179.59765625 C70.1109375 179.59765625 55.2609375 179.59765625 39.9609375 179.59765625 C39.94111816 176.2927417 39.92129883 172.98782715 39.90087891 169.58276367 C39.83384036 158.63836904 39.75620289 147.69406783 39.67341042 136.74978161 C39.62355831 130.11714438 39.57722742 123.48452223 39.5390625 116.85180664 C39.50206955 110.44562696 39.4556719 104.03957691 39.40287399 97.63350868 C39.38440434 95.19484046 39.36926926 92.75614453 39.35759354 90.31743431 C39.34060357 86.89011867 39.3115383 83.46309511 39.27978516 80.03588867 C39.27762497 79.03750473 39.27546478 78.03912079 39.27323914 77.01048279 C39.1684631 68.10267682 39.04958968 58.58169845 32.9609375 51.59765625 C30.26277867 49.45773718 28.96852939 49.59738511 25.4609375 49.72265625 C21.54038997 50.70279313 20.50280366 51.55790237 17.9609375 54.59765625 C14.81956526 61.86001182 14.51766366 69.51457419 14.52856445 77.3112793 C14.5183728 78.42479263 14.50818115 79.53830597 14.49768066 80.68556213 C14.46774471 84.32688556 14.45831431 87.9679451 14.44921875 91.609375 C14.43235772 94.14957032 14.41420557 96.68975737 14.39482117 99.22993469 C14.35229669 105.20777671 14.32268956 111.1855447 14.29949778 117.16348153 C14.27233458 123.97626213 14.2284306 130.78890387 14.18320906 137.60158479 C14.09065873 151.60021557 14.02105242 165.59885053 13.9609375 179.59765625 C-0.8890625 179.59765625 -15.7390625 179.59765625 -31.0390625 179.59765625 C-31.0687915 174.68572388 -31.0687915 174.68572388 -31.09912109 169.67456055 C-31.16616248 158.82995017 -31.24379989 147.98543405 -31.32658958 137.14093304 C-31.37643968 130.56883016 -31.42277057 123.99674248 -31.4609375 117.42456055 C-31.49793302 111.07673486 -31.54433132 104.72903993 -31.59712601 98.38132668 C-31.61559431 95.96498735 -31.63072988 93.54862008 -31.64240646 91.13223839 C-31.65939877 87.73605463 -31.68846453 84.3401654 -31.72021484 80.9440918 C-31.72237503 79.95505859 -31.72453522 78.96602539 -31.72676086 77.94702148 C-31.83782657 68.5881949 -32.42078486 59.36409887 -38.0390625 51.59765625 C-40.59646152 49.55173704 -41.74571706 49.58543352 -45.0390625 49.72265625 C-48.58878465 50.75799188 -49.80477296 51.66996651 -52.0390625 54.59765625 C-55.40427055 60.79611718 -55.48070789 66.25780838 -55.47143555 73.22436523 C-55.48672302 74.9522805 -55.48672302 74.9522805 -55.50231934 76.71510315 C-55.53242047 80.5080351 -55.54171122 84.30071435 -55.55078125 88.09375 C-55.56763 90.72934303 -55.5857805 93.36492804 -55.60517883 96.00050354 C-55.64876123 102.21928763 -55.67735874 108.43804567 -55.70050222 114.65693575 C-55.72759837 121.74047463 -55.77150702 128.82387855 -55.81679094 135.90732086 C-55.90951879 150.47069803 -55.97903466 165.0341065 -56.0390625 179.59765625 C-71.2190625 179.59765625 -86.3990625 179.59765625 -102.0390625 179.59765625 C-102.0390625 120.52765625 -102.0390625 61.45765625 -102.0390625 0.59765625 C-86.8590625 0.59765625 -71.6790625 0.59765625 -56.0390625 0.59765625 C-55.5440625 9.50765625 -55.5440625 9.50765625 -55.0390625 18.59765625 C-53.7603125 16.94765625 -52.4815625 15.29765625 -51.1640625 13.59765625 C-44.25725882 5.17287374 -36.18606078 -1.82960745 -25.6640625 -5.15234375 C-16.30162768 -6.04400421 -8.01098849 -5.50947293 0 0 Z " fill="#581A87" transform="translate(953.0390625,125.40234375)"/>
<path d="M0 0 C8.77876127 5.53023287 14.3587394 13.81575346 19.5625 22.5625 C19.8925 16.2925 20.2225 10.0225 20.5625 3.5625 C35.4125 3.5625 50.2625 3.5625 65.5625 3.5625 C65.5625 62.6325 65.5625 121.7025 65.5625 182.5625 C50.7125 182.5625 35.8625 182.5625 20.5625 182.5625 C20.2325 175.9625 19.9025 169.3625 19.5625 162.5625 C18.5725 164.191875 17.5825 165.82125 16.5625 167.5 C10.91208454 176.29834231 5.07922354 184.62234073 -5.4375 187.5625 C-16.19435415 188.84964494 -24.4539813 187.54171575 -33.0625 181 C-49.16283442 166.12671185 -54.27674867 140.39113782 -56.4375 119.5625 C-56.54835938 118.56605469 -56.65921875 117.56960937 -56.7734375 116.54296875 C-59.86877378 82.61975629 -59.47807841 40.2410966 -38.4375 11.5625 C-37.95539062 10.88574219 -37.47328125 10.20898438 -36.9765625 9.51171875 C-28.89076237 -0.91941015 -12.33042615 -5.51360519 0 0 Z M-6.4375 54.5625 C-12.82809069 65.75595699 -12.8029262 79.29813842 -12.75 91.8125 C-12.74817719 92.49404144 -12.74635437 93.17558289 -12.74447632 93.8777771 C-12.74822276 114.78535844 -12.74822276 114.78535844 -4.4375 133.5625 C-1.22608124 136.56648262 1.69898747 137.51705197 6.125 137.75 C10.90033171 136.10033995 13.0625282 133.91938726 15.5625 129.5625 C23.16470066 110.50857668 24.24234476 80.22955224 17.5625 60.5625 C14.17248921 53.02017785 14.17248921 53.02017785 7.5625 48.5625 C1.01414982 47.57406978 -2.43605981 49.58558434 -6.4375 54.5625 Z " fill="#581A87" transform="translate(671.4375,122.4375)"/>
<path d="M0 0 C14.85 0 29.7 0 45 0 C45.01458252 3.55249512 45.02916504 7.10499023 45.04418945 10.76513672 C45.09459008 22.51980843 45.16104637 34.27435938 45.23571491 46.02889824 C45.28058386 53.1536905 45.32001873 60.27843377 45.34643555 67.40332031 C45.36948807 73.61703809 45.40296625 79.83059967 45.44870156 86.04419339 C45.47253675 89.330958 45.48977304 92.61753741 45.49761391 95.90438461 C45.50727659 99.58346092 45.53536354 103.26197979 45.56762695 106.94091797 C45.56619186 108.01770309 45.56475677 109.09448822 45.5632782 110.2039032 C45.66491173 118.43168873 46.46241488 126.53661763 52 133 C54.65412347 134.06609143 57.15773518 134.21692432 60 134 C64.32223598 131.79085716 65.77865593 128.92675258 67.38053322 124.43516541 C68.59746693 119.65131747 68.43870845 114.80177903 68.43237305 109.89257812 C68.4425647 108.7014743 68.45275635 107.51037048 68.46325684 106.28317261 C68.4881554 103.03988395 68.50009078 99.79686771 68.50611091 96.55349922 C68.51553378 93.15551013 68.5417401 89.75765 68.56611633 86.35974121 C68.60967797 79.93557692 68.63828819 73.51143781 68.66143972 67.08717108 C68.68854706 59.76903323 68.73245497 52.45102579 68.77772844 45.1329813 C68.87042659 30.08871107 68.93995757 15.04444265 69 0 C84.18 0 99.36 0 115 0 C115.04535586 14.70053233 115.08210982 29.40102042 115.10362434 44.10160732 C115.11388472 50.92917342 115.12784324 57.75669258 115.15087891 64.58422852 C115.1731382 71.18486986 115.18460084 77.78547561 115.18975449 84.38615608 C115.19342277 86.89246445 115.20058521 89.39877045 115.21146011 91.90505791 C115.32650326 119.54152791 114.70782538 149.36722424 95 171 C80.71853816 183.75949583 66.29291575 184.72621935 47.9609375 184.17919922 C36.28257517 183.47241179 24.69143422 177.80804349 16.71875 169.21484375 C3.95920926 152.77243557 -0.35781284 132.63421569 -0.22705078 112.16308594 C-0.22734283 110.9421373 -0.22763489 109.72118866 -0.22793579 108.46324158 C-0.22679157 105.15610518 -0.21684931 101.84922698 -0.20278788 98.54213619 C-0.19017746 95.07084369 -0.18910197 91.59954674 -0.18673706 88.12823486 C-0.18055229 81.5731065 -0.1641827 75.01804585 -0.14403808 68.46294713 C-0.12158488 60.99244571 -0.1106621 53.52194084 -0.10064721 46.05141401 C-0.07981334 30.70089693 -0.04317528 15.35047298 0 0 Z " fill="#581A87" transform="translate(1284,126)"/>
<path d="M0 0 C20.79883679 17.57996919 25.87801252 42.80253242 28.25 68.625 C28.33016357 69.48077637 28.41032715 70.33655273 28.49291992 71.21826172 C29.23581061 80.5246717 29 89.58075196 29 99 C4.58 99 -19.84 99 -45 99 C-43.35813282 117.38722632 -43.35813282 117.38722632 -36.3125 133.5625 C-32.69761482 135.80959079 -29.22315651 136.28644018 -25 136 C-20.02136951 133.83946224 -18.04844659 130.93830095 -15.859375 126.1953125 C-14.8047073 123.50111592 -13.91493274 120.74479821 -13 118 C-0.46 118 12.08 118 25 118 C22.99628893 138.03711065 16.20922622 156.08073728 1 169.8046875 C-10.02056945 178.73668129 -23.29896158 180.13453996 -37 179 C-49.80957634 176.62534337 -59.77879031 170.00271516 -68 160 C-75.03517834 149.39019051 -80.19318114 138.06504788 -83.1875 125.6875 C-83.34250977 125.04901123 -83.49751953 124.41052246 -83.65722656 123.75268555 C-86.68714434 110.29463573 -87.37459622 96.97904974 -87.3125 83.25 C-87.31067719 82.41272369 -87.30885437 81.57544739 -87.30697632 80.71279907 C-87.26255424 68.59685789 -86.96110882 56.80976863 -84 45 C-83.82839355 44.28199219 -83.65678711 43.56398437 -83.47998047 42.82421875 C-80.05109014 28.82674689 -74.68812981 15.88861546 -65 5 C-64.40703125 4.30261719 -63.8140625 3.60523438 -63.203125 2.88671875 C-46.18277528 -15.78643352 -19.08045675 -14.76463915 0 0 Z M-39 36 C-43.00911478 43.61988802 -44.16082806 50.7823229 -44.0625 59.3125 C-44.041875 61.849375 -44.02125 64.38625 -44 67 C-33.77 67 -23.54 67 -13 67 C-13.66396563 48.51857461 -13.66396563 48.51857461 -22 33 C-27.82708979 30.0864551 -34.50199944 31.6066041 -39 36 Z " fill="#581A87" transform="translate(1510,131)"/>
<path d="M0 0 C2.65290018 2.44320403 2.91206142 3.37520903 3.125 6.95703125 C2.187248 9.69394578 1.19163502 12.1696879 -0.0234375 14.77734375 C-0.35542145 15.51781952 -0.6874054 16.25829529 -1.02944946 17.02120972 C-2.09044635 19.38071225 -3.16965152 21.73133535 -4.25 24.08203125 C-5.3189944 26.44160566 -6.38427497 28.80283006 -7.4491272 31.16427612 C-8.11246257 32.63153675 -8.77899871 34.09735548 -9.44906616 35.56155396 C-10.71735998 38.33809589 -11.90883117 41.05852475 -12.875 43.95703125 C-17.04545101 43.35098049 -20.10030867 40.95593481 -23.5 38.64453125 C-31.8726887 33.14493046 -40.44240046 27.87051134 -50.875 29.95703125 C-54.16888912 31.75049549 -54.16888912 31.75049549 -55.875 34.95703125 C-56.52353094 39.4967478 -56.34224804 41.81227355 -54.625 46.01953125 C-50.16247722 51.76812831 -42.35776086 54.78942463 -35.91796875 57.86328125 C-24.26371202 63.43294156 -13.85995002 69.6858619 -6.875 80.95703125 C-6.49859375 81.54613281 -6.1221875 82.13523437 -5.734375 82.7421875 C3.00062826 98.0936298 1.33716644 117.48202543 -2.875 133.95703125 C-7.3520005 148.2359495 -16.56500558 160.78740938 -29.9375 167.83203125 C-41.78807544 173.62564591 -57.21982571 173.83733914 -69.7578125 170.12109375 C-81.43625123 165.75997252 -93.46721212 160.29860317 -102.875 151.95703125 C-104.1012535 148.79270244 -103.80783213 146.95517136 -102.61157227 143.83105469 C-102.31118546 143.03052673 -102.01079865 142.22999878 -101.7013092 141.4052124 C-101.36804123 140.55090637 -101.03477325 139.69660034 -100.69140625 138.81640625 C-100.18987282 137.49313324 -100.18987282 137.49313324 -99.6782074 136.14312744 C-98.60819565 133.3270724 -97.52308341 130.5171154 -96.4375 127.70703125 C-95.70928427 125.79855919 -94.98205843 123.8897091 -94.25585938 121.98046875 C-92.47369527 117.30152602 -90.67796682 112.62799525 -88.875 107.95703125 C-86.24869222 109.25354011 -83.76052167 110.60803547 -81.30078125 112.19921875 C-67.26978887 121.91246561 -67.26978887 121.91246561 -50.875 123.95703125 C-47.96497479 123.44662781 -47.96497479 123.44662781 -45.875 121.95703125 C-43.55256361 118.08630393 -43.32108017 114.38838989 -43.875 109.95703125 C-47.11677059 106.22782052 -50.59163563 103.67279175 -54.8125 101.14453125 C-55.37171143 100.80542725 -55.93092285 100.46632324 -56.50708008 100.11694336 C-59.46441049 98.3371256 -62.45158705 96.62829449 -65.484375 94.98046875 C-73.15660981 90.79428541 -79.69686256 86.21510762 -85.875 79.95703125 C-86.45894531 79.395 -87.04289062 78.83296875 -87.64453125 78.25390625 C-98.2549992 67.18678525 -99.42691176 51.22474468 -99.12890625 36.7265625 C-98.4453933 19.51508822 -92.09499639 4.44139068 -79.5 -7.41796875 C-54.88510406 -28.05726294 -23.72351677 -15.31069357 0 0 Z " fill="#581A87" transform="translate(1657.875,138.04296875)"/>
<path d="M0 0 C14.85 0 29.7 0 45 0 C45 90.09 45 180.18 45 273 C30.15 273 15.3 273 0 273 C0 182.91 0 92.82 0 0 Z " fill="#581A87" transform="translate(772,32)"/>
<path d="M0 0 C14.85 0 29.7 0 45 0 C45 15.51 45 31.02 45 47 C50.61 47 56.22 47 62 47 C62 62.84 62 78.68 62 95 C56.39 95 50.78 95 45 95 C45 138.23 45 181.46 45 226 C30.15 226 15.3 226 0 226 C0 182.77 0 139.54 0 95 C-5.61 95 -11.22 95 -17 95 C-17 79.16 -17 63.32 -17 47 C-11.39 47 -5.78 47 0 47 C0 31.49 0 15.98 0 0 Z " fill="#581A87" transform="translate(1690,79)"/>
</svg>
